<?xml version="1.0"?>
<svg id="Layer_1" data-name="Layer 1" xmlns="http://www.w3.org/2000/svg" viewBox="0 0 288.14 292.54">
  <defs>
    
  </defs>
  <path class="cls-1" d="M205.35,18.38c-2.74-7.52-8.7-13.44-16.22-16.18-6.78-2.21-13.11-2.21-25.98-2.21h-38.56c-12.83,0-19.16,0-26.02,2.12-7.56,2.74-13.48,8.7-16.22,16.22-2.17,6.9-2.17,13.28-2.17,26.06v38.52c0,12.87,0,19.16,2.08,26.1,2.74,7.48,8.7,13.44,16.22,16.18,6.9,2.16,13.28,2.16,26.02,2.16h38.6c12.78,0,19.16,0,26.02-2.16,7.52-2.74,13.48-8.66,16.22-16.18,2.16-6.94,2.16-13.27,2.16-26.1v-38.48c0-12.78,0-19.16-2.16-26.06ZM157.46,32.82c0-1.21.98-2.2,2.2-2.2h7.25c.97,0,1.88.49,2.42,1.3l8.52,12.82c.64.97.65,2.22.01,3.2l-8.38,12.8c-.54.82-1.45,1.31-2.43,1.31h-7.39c-1.21,0-2.2-.98-2.2-2.2v-27.03ZM112.22,32.82c0-1.21.98-2.19,2.19-2.19h16.68c.91,0,1.77.43,2.32,1.16l3.47,4.62c.59.78.59,1.85,0,2.64l-3.47,4.62c-.55.73-1.41,1.16-2.32,1.16h-16.68c-1.21,0-2.19-.98-2.19-2.19v-9.8ZM112.22,50.06c0-1.21.98-2.19,2.19-2.19h29.65c.91,0,1.77.43,2.32,1.16l3.47,4.62c.59.78.59,1.85,0,2.64l-3.47,4.62c-.55.73-1.41,1.16-2.32,1.16h-29.65c-1.21,0-2.19-.98-2.19-2.19v-9.8ZM132.76,82.52l-8.57,13.08c-.46.71-1.26,1.14-2.1,1.14h-8.06c-1,0-1.81-.81-1.81-1.81v-28.02c0-1,.81-1.81,1.81-1.81h7.92c.84,0,1.63.42,2.09,1.12l8.71,13.1c.64.97.65,2.22.01,3.2ZM177.88,90.95l-3.47,4.62c-.55.73-1.41,1.16-2.32,1.16h-16.69c-1.21,0-2.19-.98-2.19-2.19v-9.8c0-1.21.98-2.19,2.19-2.19h16.69c.91,0,1.77.43,2.32,1.16l3.47,4.62c.59.78.59,1.85,0,2.64ZM177.88,73.51l-3.47,4.62c-.55.73-1.41,1.16-2.32,1.16h-29.65c-1.21,0-2.19-.98-2.19-2.19v-9.8c0-1.21.98-2.19,2.19-2.19h29.65c.91,0,1.77.43,2.32,1.16l3.47,4.62c.59.78.59,1.85,0,2.64Z"></path>
  <g>
    <path d="M0,224.37v-51.12h13.39l21.32,35.76h.42l-.49-15.99v-19.77h10.59v51.12h-12.69l-21.39-35.34h-.42l.42,14.8v20.55H0Z"></path>
    <path d="M69.28,225.07c-3.93,0-7.26-.79-9.99-2.38-2.73-1.59-4.83-3.83-6.28-6.73-1.45-2.9-2.17-6.26-2.17-10.1,0-4.07.74-7.57,2.21-10.52,1.47-2.94,3.55-5.22,6.24-6.84,2.69-1.61,5.88-2.42,9.57-2.42,4.3,0,7.82.94,10.55,2.8,2.73,1.87,4.71,4.44,5.93,7.71,1.21,3.27,1.61,7.01,1.19,11.22h-25.59c0,2.06.34,3.8,1.02,5.22.68,1.43,1.65,2.49,2.91,3.19,1.26.7,2.73,1.05,4.42,1.05,1.96,0,3.55-.4,4.77-1.19,1.21-.79,2.03-1.85,2.45-3.16h9.75c-.38,2.48-1.33,4.62-2.88,6.42s-3.52,3.2-5.93,4.21c-2.41,1-5.13,1.51-8.17,1.51ZM60.94,202.42l-.91-.98h17.39l-.98.98c.09-1.96-.17-3.56-.81-4.8-.63-1.24-1.52-2.18-2.66-2.84-1.15-.65-2.51-.98-4.1-.98s-2.98.34-4.17,1.02c-1.19.68-2.1,1.66-2.73,2.95-.63,1.29-.97,2.84-1.02,4.66Z"></path>
    <path d="M98.17,224.37l-8.83-37.59h10.59l4.07,18.86,1.68,9.54h.42l1.54-9.54,3.51-18.86h11.43l3.58,18.86,1.47,9.68h.49l1.61-9.68,4.07-18.86h10.17l-8.91,37.59h-13.6l-3.23-15.85-1.61-9.82h-.35l-1.54,9.82-3.09,15.85h-13.46Z"></path>
    <path d="M149.86,224.37v-51.12h17.18l6.87,22.86,3.02,12.9h.49l2.95-12.9,6.8-22.86h17.18v51.12h-10.59v-23.77l.28-17.11h-.49l-4.42,15.92-7.36,24.96h-9.19l-7.36-25.03-4.42-15.85h-.56l.28,17.11v23.77h-10.66Z"></path>
    <path d="M228.39,225.07c-3.93,0-7.26-.79-9.99-2.38-2.74-1.59-4.83-3.83-6.28-6.73-1.45-2.9-2.17-6.26-2.17-10.1,0-4.07.74-7.57,2.21-10.52,1.47-2.94,3.55-5.22,6.24-6.84,2.69-1.61,5.88-2.42,9.57-2.42,4.3,0,7.82.94,10.55,2.8,2.74,1.87,4.71,4.44,5.93,7.71,1.21,3.27,1.61,7.01,1.19,11.22h-25.6c0,2.06.34,3.8,1.02,5.22.68,1.43,1.65,2.49,2.91,3.19,1.26.7,2.74,1.05,4.42,1.05,1.96,0,3.55-.4,4.77-1.19,1.21-.79,2.03-1.85,2.45-3.16h9.75c-.38,2.48-1.33,4.62-2.88,6.42-1.54,1.8-3.52,3.2-5.92,4.21-2.41,1-5.13,1.51-8.17,1.51ZM220.05,202.42l-.91-.98h17.39l-.98.98c.09-1.96-.18-3.56-.81-4.8-.63-1.24-1.52-2.18-2.67-2.84-1.15-.65-2.51-.98-4.1-.98s-2.98.34-4.17,1.02-2.1,1.66-2.74,2.95c-.63,1.29-.97,2.84-1.02,4.66Z"></path>
    <path d="M265.77,225c-2.29,0-4.37-.43-6.24-1.3s-3.48-2.13-4.84-3.79c-1.36-1.66-2.4-3.7-3.12-6.14-.72-2.43-1.09-5.17-1.09-8.21,0-4.11.64-7.63,1.93-10.55,1.29-2.92,3.07-5.14,5.36-6.66,2.29-1.52,4.96-2.28,7.99-2.28,1.92,0,3.65.29,5.19.88,1.54.58,2.88,1.4,4,2.45s1.94,2.28,2.45,3.68h.42v-19.84h10.31v51.12h-9.75l-.42-6.38h-.56c-.75,2.1-2.16,3.8-4.24,5.08-2.08,1.29-4.55,1.93-7.4,1.93ZM269.49,216.65c1.87,0,3.42-.4,4.66-1.19,1.24-.79,2.16-1.89,2.77-3.3.61-1.4.91-2.99.91-4.77v-3.72c0-1.82-.32-3.42-.95-4.8-.63-1.38-1.57-2.47-2.8-3.26-1.24-.79-2.68-1.19-4.31-1.19-1.96,0-3.59.44-4.87,1.33-1.29.89-2.26,2.16-2.91,3.82-.66,1.66-.98,3.66-.98,6s.3,4.21.91,5.89c.61,1.68,1.54,2.97,2.8,3.86,1.26.89,2.85,1.33,4.77,1.33Z"></path>
    <path d="M83.73,292.47c-4.44,0-8.12-.7-11.04-2.1s-5.11-3.35-6.56-5.86-2.2-5.37-2.24-8.59h6.17c.05,2.38.57,4.47,1.58,6.24,1,1.78,2.5,3.13,4.49,4.07,1.99.94,4.55,1.4,7.68,1.4,2.67,0,4.98-.33,6.94-.98,1.96-.65,3.49-1.66,4.59-3.02,1.1-1.36,1.65-3.09,1.65-5.19,0-1.64-.26-3-.77-4.1-.52-1.1-1.33-2.02-2.46-2.77-1.12-.75-2.58-1.39-4.38-1.93-1.8-.54-4.01-1.02-6.63-1.44-2.9-.56-5.46-1.19-7.68-1.89-2.22-.7-4.07-1.58-5.54-2.63s-2.58-2.35-3.33-3.89c-.75-1.54-1.12-3.39-1.12-5.54,0-2.85.72-5.34,2.17-7.47,1.45-2.13,3.53-3.76,6.24-4.91,2.71-1.14,5.98-1.72,9.82-1.72s7.16.62,9.85,1.86c2.69,1.24,4.74,2.96,6.17,5.15,1.43,2.2,2.16,4.79,2.21,7.78h-6.1c-.09-2.24-.66-4.11-1.68-5.61-1.03-1.5-2.45-2.62-4.28-3.37s-3.97-1.12-6.45-1.12-4.59.35-6.35,1.05c-1.75.7-3.1,1.68-4.03,2.95-.94,1.26-1.4,2.8-1.4,4.63,0,1.96.46,3.51,1.37,4.63.91,1.12,2.42,2.03,4.52,2.73s4.96,1.36,8.56,1.96c2.29.38,4.49.87,6.59,1.47,2.1.61,3.97,1.45,5.61,2.52,1.64,1.08,2.93,2.51,3.89,4.31.96,1.8,1.44,4.13,1.44,6.98s-.75,5.35-2.24,7.5c-1.5,2.15-3.69,3.83-6.59,5.05-2.9,1.21-6.45,1.82-10.66,1.82Z"></path>
    <path d="M109.47,291.84v-51.12h5.75v33.1l3.3-3.51,15.15-15.29h7.15l-14.38,14.24,15.01,22.58h-6.66l-10.03-15.08-2.24-3.65-7.29,7.08v11.64h-5.75Z"></path>
    <path d="M150.42,248.71c-1.08,0-1.94-.29-2.59-.88-.66-.58-.98-1.37-.98-2.35s.33-1.75.98-2.31c.65-.56,1.52-.84,2.59-.84s1.87.28,2.52.84c.65.56.98,1.33.98,2.31s-.33,1.77-.98,2.35c-.66.59-1.5.88-2.52.88ZM147.47,291.84v-36.82h5.68v36.82h-5.68Z"></path>
    <path d="M163.81,291.84v-51.12h5.68v51.12h-5.68Z"></path>
    <path d="M180.15,291.84v-51.12h5.68v51.12h-5.68Z"></path>
    <path d="M209.04,292.54c-2.29,0-4.35-.28-6.17-.84s-3.39-1.34-4.7-2.35c-1.31-1-2.31-2.22-3.02-3.65-.7-1.43-1.08-3-1.12-4.73h5.61c.09,1.64.55,3,1.37,4.1.82,1.1,1.94,1.91,3.37,2.42,1.43.51,3.03.77,4.8.77,2.85,0,5.04-.54,6.56-1.61,1.52-1.08,2.28-2.59,2.28-4.56,0-1.5-.33-2.65-.98-3.47-.66-.82-1.66-1.46-3.01-1.93-1.36-.47-3.13-.86-5.33-1.19-3.04-.42-5.56-1-7.57-1.75-2.01-.75-3.53-1.81-4.56-3.19s-1.54-3.19-1.54-5.43.58-4.03,1.75-5.65c1.17-1.61,2.8-2.88,4.91-3.79,2.1-.91,4.56-1.37,7.36-1.37s5.31.46,7.36,1.37c2.06.91,3.67,2.2,4.84,3.86,1.17,1.66,1.78,3.64,1.82,5.93h-5.54c-.09-1.64-.5-2.96-1.23-3.96-.73-1-1.71-1.73-2.95-2.17-1.24-.44-2.7-.67-4.38-.67-2.62,0-4.65.54-6.1,1.61-1.45,1.08-2.17,2.5-2.17,4.28,0,1.36.35,2.44,1.05,3.26s1.79,1.45,3.26,1.89c1.47.45,3.33.83,5.58,1.16,2.76.38,5.13.94,7.12,1.68,1.99.75,3.49,1.84,4.52,3.26,1.03,1.43,1.54,3.35,1.54,5.79s-.61,4.31-1.82,5.93c-1.22,1.61-2.93,2.85-5.15,3.72-2.22.86-4.8,1.3-7.75,1.3Z"></path>
  </g>
</svg>