<?xml version="1.0" encoding="UTF-8"?>
<svg id="Layer_1" data-name="Layer 1" xmlns="http://www.w3.org/2000/svg" viewBox="0 0 252 144">
  <defs>
    <style>
      .cls-1 {
        fill: #391e1a;
        font-family: MonaSans-Regular, 'Mona Sans';
        font-size: 8px;
      }

      .cls-2 {
        fill-rule: evenodd;
      }

      .cls-2, .cls-3 {
        fill: #f6f2e9;
      }

      .cls-4 {
        font-family: MonaSans-SemiBold, 'Mona Sans';
        font-size: 7.31px;
        font-weight: 600;
      }

      .cls-4, .cls-5 {
        fill: #ef542b;
      }

      .cls-6 {
        fill: #fff;
      }

      .cls-7 {
        fill: #733737;
        font-family: MonaSans-Bold, 'Mona Sans';
        font-size: 15.53px;
        font-weight: 700;
      }
    </style>
  </defs>
  <rect class="cls-3" width="252" height="144"/>
  <path class="cls-6" d="M187.1,40.24l-9.84,13.1c-.68.9-1.74,1.43-2.86,1.43H0V21.42h174.4c1.13,0,2.19.53,2.86,1.43l9.84,13.09c.96,1.27.96,3.03,0,4.3Z"/>
  <path class="cls-5" d="M229.14,40.24l-9.84,13.1c-.68.9-1.74,1.43-2.86,1.43h-25.04c-1.98,0-3.58-1.6-3.58-3.58v-26.19c0-1.98,1.6-3.58,3.58-3.58h25.04c1.13,0,2.19.53,2.86,1.43l9.84,13.09c.96,1.27.96,3.03,0,4.3Z"/>
  <text class="cls-7" transform="translate(20.2 38.01)"><tspan x="0" y="0">First Name</tspan></text>
  <text class="cls-4" transform="translate(20.74 49.2)"><tspan x="0" y="0">DESIGNATION</tspan></text>
  <text class="cls-1" transform="translate(20.62 94)"><tspan x="0" y="0">Email ID</tspan></text>
  <text class="cls-1" transform="translate(20.77 103.49)"><tspan x="0" y="0">+91 9741671149</tspan></text>
  <g>
    <path d="M149.85,93.93v-5.83h1.1l1.29,3.45.49,1.51h.05l.49-1.51,1.29-3.45h1.1v5.83h-.66v-3.04l.02-2.17h-.06l-.7,2-1.19,3.21h-.62l-1.18-3.18-.71-2.03h-.06l.03,2.17v3.04h-.67Z"/>
    <path d="M158.55,94c-.4,0-.74-.09-1.03-.26-.29-.18-.5-.43-.65-.75s-.22-.7-.22-1.14.07-.83.22-1.16c.15-.33.36-.58.64-.76s.62-.27,1.02-.27c.43,0,.78.1,1.06.29s.48.46.6.8c.12.34.17.74.14,1.18h-3.05c0,.35.06.64.16.87.1.23.25.41.44.52s.41.17.67.17c.3,0,.54-.07.74-.21s.32-.32.38-.55h.62c-.05.27-.15.49-.32.68-.16.19-.37.33-.61.43s-.52.15-.82.15ZM157.28,91.57l-.07-.1h2.55l-.07.11c0-.34-.04-.61-.14-.81-.1-.21-.23-.36-.41-.46s-.39-.15-.62-.15-.46.05-.64.16c-.18.11-.32.26-.43.47-.1.21-.16.46-.17.77Z"/>
    <path d="M161.03,95.26v-.54h.42c.13,0,.24-.02.33-.06.09-.04.17-.09.24-.17.07-.07.12-.17.16-.29l.28-.71v.27l-1.72-4.05h.71l.87,2.29.38,1h.04l.34-1,.82-2.29h.7l-1.82,4.65c-.08.21-.18.38-.29.52-.11.13-.25.23-.4.28-.16.06-.34.09-.55.09h-.52Z"/>
    <path d="M166.81,94c-.26,0-.49-.05-.71-.15-.22-.1-.4-.25-.56-.43-.16-.19-.27-.41-.36-.68-.08-.27-.12-.57-.12-.91,0-.45.07-.84.22-1.16.15-.32.35-.57.61-.74.26-.17.57-.26.91-.26.24,0,.46.04.66.12.2.08.37.19.51.32s.24.3.3.5h.03v-2.5h.65v5.83h-.62l-.02-.87h-.04c-.1.28-.28.51-.54.68-.26.17-.57.26-.93.26ZM167.02,93.46c.28,0,.51-.06.7-.2s.34-.3.44-.51c.1-.21.15-.43.15-.67v-.51c0-.25-.05-.47-.16-.68-.1-.21-.25-.38-.44-.5-.19-.13-.42-.19-.69-.19s-.5.07-.69.2c-.2.13-.34.32-.45.56-.1.24-.16.53-.16.88s.05.63.16.87c.1.25.25.43.44.56.19.13.42.2.69.2Z"/>
    <path d="M171.69,94c-.26,0-.49-.05-.71-.15-.22-.1-.4-.25-.56-.43-.16-.19-.27-.41-.36-.68-.08-.27-.12-.57-.12-.91,0-.45.07-.84.22-1.16.15-.32.35-.57.61-.74.26-.17.57-.26.91-.26.24,0,.46.04.66.12.2.08.37.19.51.32s.24.3.3.5h.04l.02-.86h.62v4.2h-.62l-.02-.87h-.04c-.1.28-.28.51-.54.68-.26.17-.57.26-.93.26ZM171.9,93.46c.28,0,.51-.06.7-.2s.34-.3.44-.51c.1-.21.15-.43.15-.67v-.51c0-.25-.05-.47-.16-.68-.1-.21-.25-.38-.44-.5-.19-.13-.42-.19-.69-.19s-.5.07-.69.2c-.2.13-.34.32-.45.56-.1.24-.16.53-.16.88s.05.63.16.87c.1.25.25.43.44.56.19.13.42.2.69.2Z"/>
    <path d="M175.06,93.93v-4.2h.62l.02.87h.05c.13-.31.33-.54.59-.7.27-.16.56-.24.87-.24.22,0,.42.03.6.1s.34.17.48.31c.14.14.24.33.32.56.08.23.11.5.11.83v2.47h-.65v-2.34c0-.31-.04-.57-.12-.78-.08-.2-.19-.35-.35-.45s-.36-.15-.6-.15c-.26,0-.49.06-.69.19s-.35.3-.46.52c-.11.22-.16.46-.16.74v2.27h-.64Z"/>
    <path d="M184.23,94c-.42,0-.79-.07-1.14-.21-.34-.14-.63-.34-.88-.6-.25-.26-.43-.57-.56-.94s-.2-.77-.2-1.22.07-.87.2-1.24.33-.69.58-.95c.25-.26.56-.46.91-.6.35-.14.75-.21,1.18-.21.47,0,.9.07,1.27.22.37.15.68.36.92.64s.39.61.46,1.01h-.7c-.06-.26-.18-.48-.36-.67-.18-.19-.4-.33-.66-.44s-.57-.16-.92-.16c-.46,0-.85.1-1.17.3-.32.2-.57.48-.74.84-.17.36-.26.78-.26,1.26,0,.36.05.69.15.98.1.29.24.54.43.75s.41.37.68.48c.27.11.56.16.9.16.39,0,.74-.07,1.04-.22.3-.15.54-.36.71-.63s.26-.59.26-.97v-.38l.19.18h-2.4v-.54h2.93v3.08h-.55l-.04-1.21h-.06c-.08.26-.23.48-.45.67-.21.19-.47.34-.76.45-.3.11-.62.16-.96.16Z"/>
    <path d="M188.19,93.93v-4.2h.58l.04.78h.03c.09-.27.25-.47.48-.62.23-.14.49-.22.77-.22.05,0,.09,0,.14,0,.04,0,.08,0,.12.01v.62s-.08,0-.12-.01c-.04,0-.09,0-.14,0-.25,0-.46.05-.64.14-.18.09-.32.22-.43.39-.1.17-.17.37-.19.61v2.5h-.64Z"/>
    <path d="M192.44,94c-.26,0-.49-.05-.71-.15-.22-.1-.4-.25-.56-.43-.16-.19-.27-.41-.36-.68-.08-.27-.12-.57-.12-.91,0-.45.07-.84.22-1.16.15-.32.35-.57.61-.74.26-.17.57-.26.91-.26.24,0,.46.04.66.12.2.08.37.19.51.32s.24.3.3.5h.04l.02-.86h.62v4.2h-.62l-.02-.87h-.04c-.1.28-.28.51-.54.68-.26.17-.57.26-.93.26ZM192.65,93.46c.28,0,.51-.06.7-.2s.34-.3.44-.51c.1-.21.15-.43.15-.67v-.51c0-.25-.05-.47-.16-.68-.1-.21-.25-.38-.44-.5-.19-.13-.42-.19-.69-.19s-.5.07-.69.2c-.2.13-.34.32-.45.56-.1.24-.16.53-.16.88s.05.63.16.87c.1.25.25.43.44.56.19.13.42.2.69.2Z"/>
    <path d="M195.81,93.93v-4.2h.62l.02.87h.05c.13-.31.33-.54.59-.7.27-.16.56-.24.87-.24.22,0,.42.03.6.1s.34.17.48.31c.14.14.24.33.32.56.08.23.11.5.11.83v2.47h-.65v-2.34c0-.31-.04-.57-.12-.78-.08-.2-.19-.35-.35-.45s-.36-.15-.6-.15c-.26,0-.49.06-.69.19s-.35.3-.46.52c-.11.22-.16.46-.16.74v2.27h-.64Z"/>
    <path d="M202.18,94c-.26,0-.49-.05-.71-.15-.22-.1-.4-.25-.56-.43-.15-.19-.27-.41-.36-.68-.08-.27-.12-.57-.12-.91,0-.45.07-.84.22-1.16s.35-.57.61-.74c.26-.17.57-.26.91-.26.24,0,.46.04.66.12.2.08.37.19.51.32s.24.3.3.5h.03v-2.5h.65v5.83h-.62l-.02-.87h-.04c-.1.28-.28.51-.54.68s-.57.26-.93.26ZM202.39,93.46c.28,0,.51-.06.7-.2.19-.13.34-.3.44-.51s.15-.43.15-.67v-.51c0-.25-.05-.47-.16-.68-.1-.21-.25-.38-.44-.5-.19-.13-.42-.19-.69-.19s-.5.07-.69.2c-.19.13-.34.32-.45.56-.1.24-.16.53-.16.88s.05.63.16.87c.1.25.25.43.44.56.19.13.42.2.69.2Z"/>
    <path d="M206.98,94.01c-.26,0-.5-.03-.7-.1s-.39-.15-.54-.27c-.15-.11-.26-.25-.34-.42-.08-.16-.12-.34-.13-.54h.64c.01.19.06.34.16.47.09.13.22.22.38.28.16.06.34.09.55.09.33,0,.58-.06.75-.18.17-.12.26-.3.26-.52,0-.17-.04-.3-.11-.4-.08-.09-.19-.17-.34-.22-.15-.05-.36-.1-.61-.14-.35-.05-.63-.11-.86-.2s-.4-.21-.52-.36c-.12-.16-.18-.36-.18-.62s.07-.46.2-.64c.13-.18.32-.33.56-.43.24-.1.52-.16.84-.16s.6.05.84.16c.23.1.42.25.55.44.13.19.2.42.21.68h-.63c-.01-.19-.06-.34-.14-.45-.08-.11-.2-.2-.34-.25-.14-.05-.31-.08-.5-.08-.3,0-.53.06-.7.18-.17.12-.25.29-.25.49,0,.15.04.28.12.37.08.09.2.17.37.22s.38.09.64.13c.31.04.58.11.81.19.23.09.4.21.52.37.12.16.18.38.18.66s-.07.49-.21.68c-.14.18-.33.33-.59.42-.25.1-.55.15-.88.15Z"/>
    <path d="M210.88,93.93c-.29,0-.52-.07-.67-.21-.15-.14-.23-.37-.23-.69v-2.76h-.82v-.54h.82v-1.26l.64-.09v1.34h.98v.54h-.97v2.66c0,.16.04.28.11.35.07.07.18.11.33.11h.54v.55h-.74Z"/>
    <path d="M213.9,94c-.26,0-.49-.05-.71-.15-.22-.1-.4-.25-.56-.43-.16-.19-.27-.41-.36-.68-.08-.27-.12-.57-.12-.91,0-.45.07-.84.22-1.16.15-.32.35-.57.61-.74.26-.17.57-.26.91-.26.24,0,.46.04.66.12.2.08.37.19.51.32s.24.3.3.5h.04l.02-.86h.62v4.2h-.62l-.02-.87h-.04c-.1.28-.28.51-.54.68-.26.17-.57.26-.93.26ZM214.11,93.46c.28,0,.51-.06.7-.2s.34-.3.44-.51c.1-.21.15-.43.15-.67v-.51c0-.25-.05-.47-.16-.68-.1-.21-.25-.38-.44-.5-.19-.13-.42-.19-.69-.19s-.5.07-.69.2c-.2.13-.34.32-.45.56-.1.24-.16.53-.16.88s.05.63.16.87c.1.25.25.43.44.56.19.13.42.2.69.2Z"/>
    <path d="M217.27,93.93v-4.2h.62l.02.87h.05c.13-.31.33-.54.59-.7.27-.16.56-.24.87-.24.22,0,.42.03.6.1s.34.17.48.31c.14.14.24.33.32.56.08.23.11.5.11.83v2.47h-.65v-2.34c0-.31-.04-.57-.12-.78-.08-.2-.19-.35-.35-.45s-.36-.15-.6-.15c-.26,0-.49.06-.69.19s-.35.3-.46.52c-.11.22-.16.46-.16.74v2.27h-.64Z"/>
    <path d="M223.63,94c-.26,0-.49-.05-.71-.15-.22-.1-.4-.25-.56-.43-.15-.19-.27-.41-.36-.68-.08-.27-.12-.57-.12-.91,0-.45.07-.84.22-1.16s.35-.57.61-.74c.26-.17.57-.26.91-.26.24,0,.46.04.66.12.2.08.37.19.51.32s.24.3.3.5h.03v-2.5h.65v5.83h-.62l-.02-.87h-.04c-.1.28-.28.51-.54.68s-.57.26-.93.26ZM223.84,93.46c.28,0,.51-.06.7-.2.19-.13.34-.3.44-.51s.15-.43.15-.67v-.51c0-.25-.05-.47-.16-.68-.1-.21-.25-.38-.44-.5-.19-.13-.42-.19-.69-.19s-.5.07-.69.2c-.19.13-.34.32-.45.56-.1.24-.16.53-.16.88s.05.63.16.87c.1.25.25.43.44.56.19.13.42.2.69.2Z"/>
    <path d="M226.64,95.02c.18-.2.32-.4.43-.61.11-.21.18-.4.19-.56l.06.04s-.04.03-.07.05c-.03.02-.07.02-.11.02-.11,0-.19-.03-.26-.1-.06-.07-.1-.15-.1-.24,0-.11.04-.2.11-.26s.16-.1.28-.1.21.04.29.12c.08.08.12.19.12.35,0,.12-.02.24-.05.36-.03.12-.08.24-.14.36s-.12.23-.19.33c-.07.1-.13.18-.2.24h-.36Z"/>
    <path d="M151.67,103.59c-.34,0-.64-.06-.9-.17s-.47-.28-.64-.5c-.17-.22-.3-.5-.38-.82-.08-.33-.12-.7-.12-1.12,0-.58.04-1.07.13-1.48.09-.41.22-.75.4-1.02.18-.27.4-.46.67-.59s.59-.19.95-.19c.26,0,.49.03.71.1s.41.17.57.3c.16.13.29.28.4.46.1.18.16.38.18.61h-.65c-.03-.16-.08-.3-.14-.41-.07-.11-.16-.21-.26-.28s-.23-.13-.37-.17c-.14-.04-.29-.06-.44-.06-.31,0-.56.06-.76.19-.2.12-.35.3-.46.53-.11.23-.19.5-.23.82-.04.32-.07.68-.08,1.07h.03c.06-.2.17-.37.31-.52.14-.15.32-.26.54-.34.21-.08.45-.12.72-.12.36,0,.68.07.95.22.27.15.48.36.64.63.15.27.23.59.23.95,0,.38-.08.72-.25,1.01s-.4.51-.7.66c-.3.15-.64.23-1.04.23ZM151.69,103.02c.26,0,.49-.05.68-.16.2-.11.35-.27.46-.47.11-.2.16-.43.16-.7s-.05-.5-.16-.7c-.11-.19-.26-.34-.45-.45-.2-.11-.42-.16-.68-.16-.28,0-.52.06-.72.18s-.35.28-.46.48c-.11.2-.16.43-.16.68s.06.49.17.68c.11.19.27.34.47.45.2.1.43.16.69.16Z"/>
    <path d="M155.93,103.53c-.29,0-.52-.07-.67-.21-.15-.14-.23-.37-.23-.69v-2.76h-.82v-.54h.82v-1.26l.64-.09v1.34h.98v.54h-.97v2.66c0,.16.04.28.11.35.07.07.18.11.33.11h.54v.55h-.74Z"/>
    <path d="M157.53,103.53v-5.83h.64v2.5h.05c.13-.31.33-.54.59-.7s.56-.24.87-.24c.22,0,.42.03.6.1.18.06.34.17.48.31s.24.33.32.56c.07.23.11.5.11.83v2.47h-.65v-2.34c0-.31-.04-.57-.12-.78s-.19-.35-.35-.45c-.16-.1-.36-.15-.6-.15-.26,0-.49.06-.69.19s-.35.3-.46.52c-.11.22-.16.46-.16.74v2.27h-.64Z"/>
    <path d="M164.36,103.53v-3.68h-.7v-.52h.7v-.7c0-.31.09-.55.26-.7.18-.15.42-.23.74-.23h.58v.52h-.44c-.19,0-.32.04-.39.13-.07.09-.1.21-.1.36v.62h1.68v-1.63h.64v5.83h-.64v-3.68h-1.68v3.68h-.64Z"/>
    <path d="M170.31,103.6c-.3,0-.58-.05-.83-.15-.25-.1-.46-.25-.64-.44s-.32-.42-.42-.68c-.1-.26-.15-.56-.15-.88,0-.43.08-.81.25-1.14.17-.33.4-.58.71-.76.31-.18.67-.28,1.08-.28.3,0,.58.05.83.15.25.1.46.24.64.44.18.19.31.42.41.69.1.27.14.57.14.9,0,.43-.08.8-.24,1.13-.16.33-.4.58-.7.76-.3.18-.66.28-1.07.28ZM170.31,103.04c.27,0,.51-.06.71-.19.2-.13.36-.31.48-.55.12-.24.17-.53.17-.87,0-.25-.03-.48-.1-.68-.06-.2-.15-.37-.27-.51-.12-.14-.26-.25-.42-.32-.17-.07-.36-.11-.57-.11-.27,0-.51.07-.72.2-.21.13-.37.32-.48.56-.11.24-.17.53-.17.88,0,.25.03.47.09.67.06.2.15.37.27.51s.26.24.44.32c.17.07.36.11.57.11Z"/>
    <path d="M175.23,103.6c-.3,0-.58-.05-.83-.15-.25-.1-.46-.25-.64-.44s-.32-.42-.42-.68c-.1-.26-.15-.56-.15-.88,0-.43.08-.81.25-1.14.17-.33.4-.58.71-.76.31-.18.67-.28,1.08-.28.3,0,.58.05.83.15.25.1.46.24.64.44.18.19.31.42.41.69.1.27.14.57.14.9,0,.43-.08.8-.24,1.13-.16.33-.4.58-.7.76-.3.18-.66.28-1.07.28ZM175.23,103.04c.27,0,.51-.06.71-.19.2-.13.36-.31.48-.55.12-.24.17-.53.17-.87,0-.25-.03-.48-.1-.68-.06-.2-.15-.37-.27-.51-.12-.14-.26-.25-.42-.32-.17-.07-.36-.11-.57-.11-.27,0-.51.07-.72.2-.21.13-.37.32-.48.56-.11.24-.17.53-.17.88,0,.25.03.47.09.67.06.2.15.37.27.51s.26.24.44.32c.17.07.36.11.57.11Z"/>
    <path d="M178.21,103.53v-4.2h.58l.04.78h.03c.09-.27.25-.47.48-.62.23-.14.49-.22.77-.22.05,0,.09,0,.14,0,.04,0,.08,0,.12.01v.62s-.08,0-.12-.01c-.04,0-.09,0-.14,0-.25,0-.46.05-.64.14-.18.09-.32.22-.43.39-.1.17-.17.37-.19.61v2.5h-.64Z"/>
    <path d="M180.1,104.62c.18-.2.32-.4.43-.61.11-.21.18-.4.19-.56l.06.04s-.04.03-.07.05c-.03.02-.07.02-.11.02-.11,0-.19-.03-.26-.1-.06-.07-.1-.15-.1-.24,0-.11.04-.2.11-.26s.16-.1.28-.1.21.04.29.12c.08.08.12.19.12.35,0,.12-.02.24-.05.36-.03.12-.08.24-.14.36s-.12.23-.19.33c-.07.1-.13.18-.2.24h-.36Z"/>
    <path d="M183.93,103.53v-5.83h1.1l1.29,3.45.49,1.51h.05l.49-1.51,1.29-3.45h1.1v5.83h-.66v-3.04l.02-2.17h-.06l-.7,2-1.19,3.21h-.62l-1.18-3.18-.71-2.03h-.06l.03,2.17v3.04h-.67Z"/>
    <path d="M192.63,103.6c-.4,0-.74-.09-1.03-.26-.29-.18-.5-.43-.65-.75s-.22-.7-.22-1.14.07-.83.22-1.16c.15-.33.36-.58.64-.76s.62-.27,1.02-.27c.43,0,.78.1,1.06.29s.48.46.6.8c.12.34.17.74.14,1.18h-3.05c0,.35.06.64.16.87.1.23.25.41.44.52s.41.17.67.17c.3,0,.54-.07.74-.21s.32-.32.38-.55h.62c-.05.27-.15.49-.32.68-.16.19-.37.33-.61.43s-.52.15-.82.15ZM191.36,101.17l-.07-.1h2.55l-.07.11c0-.34-.04-.61-.14-.81-.1-.21-.23-.36-.41-.46s-.39-.15-.62-.15-.46.05-.64.16c-.18.11-.32.26-.43.47-.1.21-.16.46-.17.77Z"/>
    <path d="M195.11,104.86v-.54h.42c.13,0,.24-.02.33-.06.09-.04.17-.09.24-.17.07-.07.12-.17.16-.29l.28-.71v.27l-1.72-4.05h.71l.87,2.29.38,1h.04l.34-1,.82-2.29h.7l-1.82,4.65c-.08.21-.18.38-.29.52-.11.13-.25.23-.4.28-.16.06-.34.09-.55.09h-.52Z"/>
    <path d="M200.89,103.6c-.26,0-.49-.05-.71-.15-.22-.1-.4-.25-.56-.43-.15-.19-.27-.41-.36-.68-.08-.27-.12-.57-.12-.91,0-.45.07-.84.22-1.16s.35-.57.61-.74c.26-.17.57-.26.91-.26.24,0,.46.04.66.12.2.08.37.19.51.32s.24.3.3.5h.03v-2.5h.65v5.83h-.62l-.02-.87h-.04c-.1.28-.28.51-.54.68s-.57.26-.93.26ZM201.1,103.06c.28,0,.51-.06.7-.2.19-.13.34-.3.44-.51s.15-.43.15-.67v-.51c0-.25-.05-.47-.16-.68-.1-.21-.25-.38-.44-.5-.19-.13-.42-.19-.69-.19s-.5.07-.69.2c-.19.13-.34.32-.45.56-.1.24-.16.53-.16.88s.05.63.16.87c.1.25.25.43.44.56.19.13.42.2.69.2Z"/>
    <path d="M205.77,103.6c-.26,0-.49-.05-.71-.15-.22-.1-.4-.25-.56-.43-.16-.19-.27-.41-.36-.68-.08-.27-.12-.57-.12-.91,0-.45.07-.84.22-1.16.15-.32.35-.57.61-.74.26-.17.57-.26.91-.26.24,0,.46.04.66.12.2.08.37.19.51.32s.24.3.3.5h.04l.02-.86h.62v4.2h-.62l-.02-.87h-.04c-.1.28-.28.51-.54.68-.26.17-.57.26-.93.26ZM205.98,103.06c.28,0,.51-.06.7-.2s.34-.3.44-.51c.1-.21.15-.43.15-.67v-.51c0-.25-.05-.47-.16-.68-.1-.21-.25-.38-.44-.5-.19-.13-.42-.19-.69-.19s-.5.07-.69.2c-.2.13-.34.32-.45.56-.1.24-.16.53-.16.88s.05.63.16.87c.1.25.25.43.44.56.19.13.42.2.69.2Z"/>
    <path d="M209.14,103.53v-4.2h.62l.02.87h.05c.13-.31.33-.54.59-.7.27-.16.56-.24.87-.24.22,0,.42.03.6.1s.34.17.48.31c.14.14.24.33.32.56.08.23.11.5.11.83v2.47h-.65v-2.34c0-.31-.04-.57-.12-.78-.08-.2-.19-.35-.35-.45s-.36-.15-.6-.15c-.26,0-.49.06-.69.19s-.35.3-.46.52c-.11.22-.16.46-.16.74v2.27h-.64Z"/>
    <path d="M149.85,113.13v-5.83h2.68c.23,0,.44.02.63.06.19.04.36.11.51.19.15.09.28.19.38.32.1.12.18.27.23.43.05.16.08.35.08.55,0,.36-.09.66-.27.91-.18.25-.44.42-.79.52v.05c.23.04.41.11.55.2s.23.23.3.39c.06.16.09.35.09.58v1.02c0,.1,0,.19.01.3,0,.1.04.21.08.32h-.69c-.04-.09-.06-.18-.08-.28-.01-.1-.02-.22-.02-.36v-.88c0-.21-.03-.39-.09-.53-.06-.14-.17-.25-.33-.32-.16-.07-.39-.11-.68-.11h-2v-.57h1.94c.46,0,.79-.11.98-.32.2-.21.29-.48.29-.81,0-.19-.03-.35-.09-.48-.06-.14-.15-.25-.26-.34-.12-.09-.25-.15-.4-.19-.15-.04-.33-.06-.52-.06h-1.86v5.25h-.68Z"/>
    <path d="M157.22,113.2c-.3,0-.58-.05-.83-.15-.25-.1-.46-.25-.64-.44s-.32-.42-.42-.68c-.1-.26-.15-.56-.15-.88,0-.43.08-.81.25-1.14.17-.33.4-.58.71-.76.31-.18.67-.28,1.08-.28.3,0,.58.05.83.15.25.1.46.24.64.44.18.19.31.42.41.69.1.27.14.57.14.9,0,.43-.08.8-.24,1.13-.16.33-.4.58-.7.76s-.66.28-1.07.28ZM157.22,112.64c.27,0,.51-.06.71-.19.2-.13.36-.31.48-.55.11-.24.17-.53.17-.87,0-.25-.03-.48-.1-.68-.06-.2-.16-.37-.27-.51-.12-.14-.26-.25-.42-.32s-.35-.11-.57-.11c-.27,0-.51.07-.72.2s-.37.32-.48.56c-.12.24-.17.53-.17.88,0,.25.03.47.09.67.06.2.15.37.27.51s.27.24.44.32c.17.07.36.11.57.11Z"/>
    <path d="M161.87,113.2c-.26,0-.49-.05-.71-.15-.22-.1-.4-.25-.56-.43-.16-.19-.27-.41-.36-.68-.08-.27-.12-.57-.12-.91,0-.45.07-.84.22-1.16.15-.32.35-.57.61-.74.26-.17.57-.26.91-.26.24,0,.46.04.66.12.2.08.37.19.51.32s.24.3.3.5h.04l.02-.86h.62v4.2h-.62l-.02-.87h-.04c-.1.28-.28.51-.54.68-.26.17-.57.26-.93.26ZM162.07,112.66c.28,0,.51-.06.7-.2s.34-.3.44-.51c.1-.21.15-.43.15-.67v-.51c0-.25-.05-.47-.16-.68-.1-.21-.25-.38-.44-.5-.19-.13-.42-.19-.69-.19s-.5.07-.69.2c-.2.13-.34.32-.45.56-.1.24-.16.53-.16.88s.05.63.16.87c.1.25.25.43.44.56.19.13.42.2.69.2Z"/>
    <path d="M166.75,113.2c-.26,0-.49-.05-.71-.15-.22-.1-.4-.25-.56-.43-.15-.19-.27-.41-.36-.68-.08-.27-.12-.57-.12-.91,0-.45.07-.84.22-1.16s.35-.57.61-.74c.26-.17.57-.26.91-.26.24,0,.46.04.66.12.2.08.37.19.51.32s.24.3.3.5h.03v-2.5h.65v5.83h-.62l-.02-.87h-.04c-.1.28-.28.51-.54.68s-.57.26-.93.26ZM166.95,112.66c.28,0,.51-.06.7-.2.19-.13.34-.3.44-.51s.15-.43.15-.67v-.51c0-.25-.05-.47-.16-.68-.1-.21-.25-.38-.44-.5-.19-.13-.42-.19-.69-.19s-.5.07-.69.2c-.19.13-.34.32-.45.56-.1.24-.16.53-.16.88s.05.63.16.87c.1.25.25.43.44.56.19.13.42.2.69.2Z"/>
    <path d="M169.75,114.22c.18-.2.32-.4.43-.61.11-.21.18-.4.19-.56l.06.04s-.04.03-.07.05c-.03.02-.07.02-.11.02-.11,0-.19-.03-.26-.1-.06-.07-.1-.15-.1-.24,0-.11.04-.2.11-.26s.16-.1.28-.1.21.04.29.12c.08.08.12.19.12.35,0,.12-.02.24-.05.36-.03.12-.08.24-.14.36s-.12.23-.19.33c-.07.1-.13.18-.2.24h-.36Z"/>
    <path d="M173.59,113.13v-5.83h.87l3.29,4.93h.04l-.03-1.98v-2.95h.66v5.83h-.84l-3.29-4.9h-.04l.03,1.87v3.03h-.69Z"/>
    <path d="M181.2,113.2c-.26,0-.49-.05-.71-.15-.22-.1-.4-.25-.56-.43-.16-.19-.27-.41-.36-.68-.08-.27-.12-.57-.12-.91,0-.45.07-.84.22-1.16.15-.32.35-.57.61-.74.26-.17.57-.26.91-.26.24,0,.46.04.66.12.2.08.37.19.51.32s.24.3.3.5h.04l.02-.86h.62v4.2h-.62l-.02-.87h-.04c-.1.28-.28.51-.54.68-.26.17-.57.26-.93.26ZM181.41,112.66c.28,0,.51-.06.7-.2s.34-.3.44-.51c.1-.21.15-.43.15-.67v-.51c0-.25-.05-.47-.16-.68-.1-.21-.25-.38-.44-.5-.19-.13-.42-.19-.69-.19s-.5.07-.69.2c-.2.13-.34.32-.45.56-.1.24-.16.53-.16.88s.05.63.16.87c.1.25.25.43.44.56.19.13.42.2.69.2Z"/>
    <path d="M186.08,113.2c-.26,0-.49-.05-.71-.15-.22-.1-.4-.25-.56-.43-.15-.19-.27-.41-.36-.68-.08-.27-.12-.57-.12-.91,0-.45.07-.84.22-1.16s.35-.57.61-.74c.26-.17.57-.26.91-.26.24,0,.46.04.66.12.2.08.37.19.51.32s.24.3.3.5h.03v-2.5h.65v5.83h-.62l-.02-.87h-.04c-.1.28-.28.51-.54.68s-.57.26-.93.26ZM186.29,112.66c.28,0,.51-.06.7-.2.19-.13.34-.3.44-.51s.15-.43.15-.67v-.51c0-.25-.05-.47-.16-.68-.1-.21-.25-.38-.44-.5-.19-.13-.42-.19-.69-.19s-.5.07-.69.2c-.19.13-.34.32-.45.56-.1.24-.16.53-.16.88s.05.63.16.87c.1.25.25.43.44.56.19.13.42.2.69.2Z"/>
    <path d="M190.87,113.13l2.14-5.83h.96l2.13,5.83h-.71l-1.62-4.56-.26-.74h-.05l-.25.74-1.62,4.56h-.72ZM192.03,111.7l.1-.56h2.71l.1.56h-2.92Z"/>
    <path d="M196.91,113.13v-5.83h.65v5.83h-.65Z"/>
    <path d="M202.6,113.2c-.51,0-.93-.08-1.26-.24-.33-.16-.58-.38-.75-.67-.17-.29-.25-.61-.26-.98h.7c0,.27.07.51.18.71.11.2.29.36.51.46.23.11.52.16.88.16.3,0,.57-.04.79-.11s.4-.19.52-.34c.12-.15.19-.35.19-.59,0-.19-.03-.34-.09-.47-.06-.12-.15-.23-.28-.32s-.29-.16-.5-.22c-.21-.06-.46-.12-.76-.16-.33-.06-.62-.14-.88-.22s-.46-.18-.63-.3-.29-.27-.38-.44c-.09-.18-.13-.39-.13-.63,0-.33.08-.61.25-.85.17-.24.4-.43.71-.56.31-.13.68-.2,1.12-.2s.82.07,1.12.21c.31.14.54.34.7.59.16.25.25.55.25.89h-.7c-.01-.26-.08-.47-.19-.64-.12-.17-.28-.3-.49-.38s-.45-.13-.74-.13-.52.04-.72.12c-.2.08-.35.19-.46.34-.11.14-.16.32-.16.53,0,.22.05.4.16.53.1.13.28.23.52.31s.57.15.98.22c.26.04.51.1.75.17.24.07.45.17.64.29.19.12.33.29.44.49.11.21.16.47.16.8s-.08.61-.26.86-.42.44-.75.58c-.33.14-.74.21-1.22.21Z"/>
    <path d="M205.84,113.13v-5.83h.64v2.5h.05c.13-.31.33-.54.59-.7.27-.16.56-.24.87-.24.22,0,.42.03.6.1s.34.17.48.31c.14.14.24.33.32.56.08.23.11.5.11.83v2.47h-.65v-2.34c0-.31-.04-.57-.12-.78-.08-.2-.19-.35-.35-.45s-.36-.15-.6-.15c-.26,0-.49.06-.69.19s-.35.3-.46.52c-.11.22-.16.46-.16.74v2.27h-.64Z"/>
    <path d="M212.32,113.2c-.4,0-.74-.09-1.03-.26-.29-.18-.5-.43-.65-.75s-.22-.7-.22-1.14.07-.83.22-1.16c.15-.33.36-.58.64-.76s.62-.27,1.02-.27c.43,0,.78.1,1.06.29s.48.46.6.8c.12.34.17.74.14,1.18h-3.05c0,.35.06.64.16.87.1.23.25.41.44.52s.41.17.67.17c.3,0,.54-.07.74-.21s.32-.32.38-.55h.62c-.05.27-.15.49-.32.68-.16.19-.37.33-.61.43s-.52.15-.82.15ZM211.06,110.77l-.07-.1h2.55l-.07.11c0-.34-.04-.61-.14-.81-.1-.21-.23-.36-.41-.46s-.39-.15-.62-.15-.46.05-.64.16c-.18.11-.32.26-.43.47-.1.21-.16.46-.17.77Z"/>
    <path d="M217.15,113.2c-.24,0-.46-.04-.66-.12s-.37-.19-.5-.33c-.14-.14-.24-.31-.31-.49h-.04l-.03.86h-.61v-5.83h.65v2.5h.03c.1-.28.27-.51.54-.68.26-.17.57-.26.94-.26.26,0,.49.05.7.15.21.1.4.24.55.43s.27.41.36.68c.08.27.12.57.12.91,0,.45-.07.84-.22,1.17-.14.33-.35.57-.61.74-.26.17-.57.26-.91.26ZM216.93,112.66c.27,0,.5-.06.7-.19.19-.13.34-.31.45-.56.11-.25.16-.54.16-.88,0-.26-.03-.48-.09-.68-.06-.2-.15-.37-.26-.51-.11-.14-.24-.25-.4-.32-.16-.07-.34-.11-.54-.11-.28,0-.51.06-.7.19-.19.13-.34.29-.44.5-.1.21-.15.44-.15.68v.51c0,.25.05.47.15.68.1.21.25.38.44.5.19.13.42.19.69.19Z"/>
    <path d="M221.54,113.2c-.26,0-.49-.05-.71-.15-.22-.1-.4-.25-.56-.43-.15-.19-.27-.41-.36-.68-.08-.27-.12-.57-.12-.91,0-.45.07-.84.22-1.16s.35-.57.61-.74c.26-.17.57-.26.91-.26.24,0,.46.04.66.12.2.08.37.19.51.32s.24.3.3.5h.04l.02-.86h.62v4.2h-.62l-.02-.87h-.04c-.1.28-.28.51-.54.68s-.57.26-.93.26ZM221.75,112.66c.28,0,.51-.06.7-.2.19-.13.34-.3.44-.51s.15-.43.15-.67v-.51c0-.25-.05-.47-.16-.68-.1-.21-.25-.38-.44-.5-.19-.13-.42-.19-.69-.19s-.5.07-.69.2c-.19.13-.34.32-.45.56-.1.24-.16.53-.16.88s.05.63.16.87c.1.25.25.43.44.56.19.13.42.2.69.2Z"/>
    <path d="M224.55,114.22c.18-.2.32-.4.43-.61.11-.21.18-.4.19-.56l.06.04s-.04.03-.07.05c-.03.02-.07.02-.11.02-.11,0-.19-.03-.26-.1-.06-.07-.1-.15-.1-.24,0-.11.04-.2.11-.26s.16-.1.28-.1.21.04.29.12c.08.08.12.19.12.35,0,.12-.02.24-.05.36-.03.12-.08.24-.14.36s-.12.23-.19.33c-.07.1-.13.18-.2.24h-.36Z"/>
    <path d="M149.85,122.73v-5.83h2.29c.55,0,1.03.12,1.42.36.39.24.69.58.89,1.02.21.44.31.95.31,1.54,0,.44-.06.83-.18,1.19-.12.36-.29.66-.51.92-.22.26-.5.45-.82.59-.32.14-.69.21-1.11.21h-2.29ZM150.53,122.13h1.53c.3,0,.58-.05.82-.15.25-.1.46-.25.63-.44s.31-.44.4-.73c.09-.29.14-.63.14-1,0-.51-.08-.94-.25-1.28s-.4-.6-.7-.77c-.3-.17-.65-.26-1.05-.26h-1.53v4.63Z"/>
    <path d="M157.31,122.8c-.32,0-.59-.06-.82-.19-.23-.12-.4-.31-.52-.57-.12-.25-.18-.57-.18-.94v-2.58h.65v2.42c0,.28.04.51.11.71.08.19.19.34.36.44.16.1.37.15.63.15s.47-.06.66-.18c.19-.12.34-.3.45-.52.11-.22.16-.48.16-.78v-2.24h.65v4.2h-.62l-.03-.9h-.05c-.11.3-.29.53-.55.71s-.56.26-.9.26Z"/>
    <path d="M162.82,122.8c-.24,0-.46-.04-.66-.12s-.37-.19-.5-.33c-.14-.14-.24-.31-.31-.49h-.04l-.03.86h-.61v-5.83h.65v2.5h.03c.1-.28.27-.51.54-.68.26-.17.57-.26.94-.26.26,0,.49.05.7.15.21.1.4.24.55.43s.27.41.36.68c.08.27.12.57.12.91,0,.45-.07.84-.22,1.17-.14.33-.35.57-.61.74-.26.17-.57.26-.91.26ZM162.59,122.26c.27,0,.5-.06.7-.19.19-.13.34-.31.45-.56.11-.25.16-.54.16-.88,0-.26-.03-.48-.09-.68-.06-.2-.15-.37-.26-.51-.11-.14-.24-.25-.4-.32-.16-.07-.34-.11-.54-.11-.28,0-.51.06-.7.19-.19.13-.34.29-.44.5-.1.21-.15.44-.15.68v.51c0,.25.05.47.15.68.1.21.25.38.44.5.19.13.42.19.69.19Z"/>
    <path d="M167.2,122.8c-.26,0-.49-.05-.71-.15-.22-.1-.4-.25-.56-.43-.16-.19-.27-.41-.36-.68-.08-.27-.12-.57-.12-.91,0-.45.07-.84.22-1.16.15-.32.35-.57.61-.74.26-.17.57-.26.91-.26.24,0,.46.04.66.12.2.08.37.19.51.32s.24.3.3.5h.04l.02-.86h.62v4.2h-.62l-.02-.87h-.04c-.1.28-.28.51-.54.68-.26.17-.57.26-.93.26ZM167.41,122.26c.28,0,.51-.06.7-.2s.34-.3.44-.51c.1-.21.15-.43.15-.67v-.51c0-.25-.05-.47-.16-.68-.1-.21-.25-.38-.44-.5-.19-.13-.42-.19-.69-.19s-.5.07-.69.2c-.2.13-.34.32-.45.56-.1.24-.16.53-.16.88s.05.63.16.87c.1.25.25.43.44.56.19.13.42.2.69.2Z"/>
    <path d="M170.91,117.81c-.12,0-.22-.03-.3-.1-.07-.07-.11-.16-.11-.27s.04-.2.11-.26c.08-.06.17-.1.3-.1s.21.03.29.1c.08.06.11.15.11.26s-.04.2-.11.27c-.07.07-.17.1-.29.1ZM170.57,122.73v-4.2h.65v4.2h-.65Z"/>
    <path d="M172.07,123.82c.18-.2.32-.4.43-.61.11-.21.18-.4.19-.56l.06.04s-.04.03-.07.05c-.03.02-.07.02-.11.02-.11,0-.19-.03-.26-.1-.06-.07-.1-.15-.1-.24,0-.11.04-.2.11-.26.07-.06.16-.1.28-.1s.21.04.29.12c.08.08.12.19.12.35,0,.12-.02.24-.05.36-.04.12-.08.24-.14.36s-.12.23-.19.33c-.07.1-.13.18-.2.24h-.36Z"/>
    <path d="M178.15,122.8c-.49,0-.9-.09-1.25-.27s-.62-.43-.8-.76-.28-.72-.28-1.18v-3.7h.68v3.68c0,.36.07.65.2.89.13.24.33.41.58.53s.55.18.89.18c.37,0,.68-.07.93-.2.25-.13.43-.32.55-.56.12-.24.18-.52.18-.85v-3.68h.67v3.7c0,.45-.09.84-.28,1.17-.18.33-.45.59-.8.77-.35.18-.77.27-1.26.27Z"/>
    <path d="M181.56,122.78c-.11,0-.2-.03-.28-.1-.07-.07-.11-.16-.11-.27s.04-.19.11-.26c.07-.07.16-.1.28-.1s.2.03.28.1c.07.07.11.15.11.26,0,.11-.04.2-.11.27-.07.07-.16.1-.28.1Z"/>
    <path d="M182.67,122.73l2.14-5.83h.96l2.13,5.83h-.71l-1.62-4.56-.26-.74h-.05l-.25.74-1.62,4.56h-.72ZM183.83,121.3l.1-.56h2.71l.1.56h-2.92Z"/>
    <path d="M189,122.78c-.11,0-.2-.03-.28-.1-.07-.07-.11-.16-.11-.27s.04-.19.11-.26c.07-.07.16-.1.28-.1s.2.03.28.1c.07.07.11.15.11.26,0,.11-.04.2-.11.27-.07.07-.16.1-.28.1Z"/>
    <path d="M190.43,122.73v-5.83h4.01v.6h-3.49l.16-.16v4.94l-.16-.16h3.5v.61h-4.02ZM190.95,120.02v-.56h3.1v.56h-3.1Z"/>
    <path d="M195.57,122.78c-.11,0-.2-.03-.28-.1-.07-.07-.11-.16-.11-.27s.04-.19.11-.26c.07-.07.16-.1.28-.1s.2.03.28.1c.07.07.11.15.11.26,0,.11-.04.2-.11.27-.07.07-.16.1-.28.1Z"/>
  </g>
  <g>
    <path class="cls-2" d="M209.16,28.82c0-.36.3-.66.66-.66h2.18c.29,0,.56.15.73.39l2.56,3.85c.19.29.19.67,0,.96l-2.52,3.85c-.16.25-.44.39-.73.39h-2.22c-.36,0-.66-.3-.66-.66v-8.12Z"/>
    <path class="cls-2" d="M195.56,28.82c0-.36.3-.66.66-.66h5.01c.27,0,.53.13.7.35l1.04,1.39c.18.23.18.56,0,.79l-1.04,1.39c-.16.22-.42.35-.7.35h-5.01c-.36,0-.66-.3-.66-.66v-2.94Z"/>
    <path class="cls-2" d="M195.56,34c0-.36.3-.66.66-.66h8.91c.27,0,.53.13.7.35l1.04,1.39c.18.23.18.56,0,.79l-1.04,1.39c-.16.22-.42.35-.7.35h-8.91c-.36,0-.66-.3-.66-.66v-2.95Z"/>
    <path class="cls-2" d="M201.73,43.75l-2.57,3.93c-.14.21-.38.34-.63.34h-2.42c-.3,0-.54-.24-.54-.54v-8.42c0-.3.24-.54.54-.54h2.38c.25,0,.49.13.63.34l2.62,3.94c.19.29.19.67,0,.96Z"/>
    <path class="cls-2" d="M215.29,46.29l-1.04,1.39c-.16.22-.42.35-.7.35h-5.02c-.36,0-.66-.3-.66-.66v-2.95c0-.36.3-.66.66-.66h5.02c.27,0,.53.13.7.35l1.04,1.39c.18.23.18.56,0,.79Z"/>
    <path class="cls-2" d="M215.3,41.04l-1.04,1.39c-.16.22-.42.35-.7.35h-8.91c-.36,0-.66-.3-.66-.66v-2.95c0-.36.3-.66.66-.66h8.91c.27,0,.53.13.7.35l1.04,1.39c.18.23.18.56,0,.79Z"/>
  </g>
</svg>