<?xml version="1.0" encoding="UTF-8"?>
<svg xmlns="http://www.w3.org/2000/svg" xmlns:xlink="http://www.w3.org/1999/xlink" viewBox="0 0 955.17 589.68">
  <defs>
    <style>
      .cls-1, .cls-2, .cls-3 {
        fill: none;
      }

      .cls-4 {
        fill: url(#radial-gradient);
      }

      .cls-2 {
        stroke-width: 3px;
      }

      .cls-2, .cls-5, .cls-6, .cls-3 {
        stroke-miterlimit: 10;
      }

      .cls-2, .cls-3 {
        stroke: #fff;
      }

      .cls-7 {
        isolation: isolate;
      }

      .cls-8 {
        font-family: MonaSans-Medium, 'Mona Sans';
        font-size: 16px;
        font-weight: 500;
      }

      .cls-5 {
        fill: #efe9e0;
      }

      .cls-5, .cls-6 {
        mix-blend-mode: multiply;
        stroke: #000;
      }

      .cls-9 {
        clip-path: url(#clippath-1);
      }

      .cls-10 {
        letter-spacing: 0em;
      }

      .cls-11 {
        fill: #fff;
      }

      .cls-12 {
        opacity: .5;
      }

      .cls-6 {
        fill: #ff9d00;
      }

      .cls-13 {
        letter-spacing: 0em;
      }

      .cls-14 {
        letter-spacing: 0em;
      }

      .cls-15 {
        letter-spacing: .02em;
      }

      .cls-3 {
        stroke-dasharray: 12.11 12.11;
        stroke-width: .75px;
      }

      .cls-16 {
        letter-spacing: .02em;
      }

      .cls-17 {
        clip-path: url(#clippath);
      }

      .cls-18 {
        letter-spacing: .02em;
      }

      .cls-19 {
        letter-spacing: .02em;
      }

      .cls-20 {
        letter-spacing: 0em;
      }
    </style>
    <radialGradient id="radial-gradient" cx="92.59" cy="1392.25" fx="92.59" fy="1392.25" r="1258.92" gradientTransform="translate(-437.7 656.63) rotate(-90) scale(.55 .65)" gradientUnits="userSpaceOnUse">
      <stop offset="0" stop-color="#ff9d00"/>
      <stop offset=".15" stop-color="#fda921"/>
      <stop offset=".47" stop-color="#fbc877"/>
      <stop offset=".86" stop-color="#f8f3ea"/>
    </radialGradient>
    <clipPath id="clippath">
      <rect class="cls-1" y="0" width="955.17" height="589.68"/>
    </clipPath>
    <clipPath id="clippath-1">
      <rect class="cls-1" y="-677.65" width="955.17" height="589.68"/>
    </clipPath>
  </defs>
  <g class="cls-7">
    <g id="Layer_1" data-name="Layer 1">
      <rect class="cls-4" y="0" width="955.17" height="589.68"/>
      <g class="cls-17">
        <g class="cls-12">
          <circle class="cls-3" cx="477.58" cy="603.83" r="165.71" transform="translate(-287.09 514.56) rotate(-45)"/>
          <g id="Offset_Group" data-name="Offset Group">
            <path class="cls-3" d="M683.29,603.83c0-56.79-23.07-108.28-60.25-145.46-37.18-37.18-88.67-60.25-145.46-60.25s-108.28,23.07-145.46,60.25c-37.18,37.18-60.25,88.67-60.25,145.46s23.07,108.28,60.25,145.46,88.67,60.25,145.46,60.25,108.28-23.07,145.46-60.25,60.25-88.67,60.25-145.46Z"/>
            <path class="cls-3" d="M723.29,603.83c0-67.83-27.59-129.37-71.97-173.74-44.38-44.38-105.91-71.97-173.74-71.97s-129.37,27.59-173.74,71.97c-44.38,44.38-71.97,105.92-71.97,173.74s27.59,129.37,71.97,173.74c44.38,44.38,105.91,71.97,173.74,71.97s129.37-27.59,173.74-71.97c44.38-44.38,71.97-105.91,71.97-173.74Z"/>
            <path class="cls-3" d="M763.29,603.83c0-78.86-32.11-150.46-83.68-202.03-51.57-51.57-123.16-83.68-202.03-83.68s-150.46,32.11-202.03,83.68c-51.57,51.57-83.68,123.16-83.68,202.03s32.11,150.46,83.68,202.03c51.57,51.57,123.16,83.68,202.03,83.68s150.46-32.11,202.03-83.68c51.57-51.57,83.68-123.16,83.68-202.03Z"/>
            <path class="cls-3" d="M803.29,603.83c0-89.9-36.63-171.55-95.4-230.31-58.77-58.77-140.41-95.4-230.31-95.4s-171.55,36.63-230.31,95.4c-58.77,58.77-95.4,140.41-95.4,230.31s36.63,171.55,95.4,230.31c58.77,58.77,140.41,95.4,230.31,95.4s171.55-36.63,230.31-95.4c58.77-58.77,95.4-140.41,95.4-230.31Z"/>
            <path class="cls-3" d="M843.29,603.83c0-100.93-41.15-192.64-107.11-258.6-65.96-65.96-157.66-107.11-258.6-107.11s-192.64,41.15-258.6,107.11c-65.96,65.96-107.11,157.66-107.11,258.6s41.15,192.64,107.11,258.6c65.96,65.96,157.66,107.11,258.6,107.11s192.64-41.15,258.6-107.11c65.96-65.96,107.11-157.66,107.11-258.6Z"/>
            <path class="cls-3" d="M883.29,603.83c0-111.97-45.67-213.72-118.83-286.88-73.16-73.16-174.91-118.83-286.88-118.83s-213.72,45.67-286.88,118.83c-73.16,73.16-118.83,174.91-118.83,286.88s45.67,213.72,118.83,286.88c73.16,73.16,174.91,118.83,286.88,118.83s213.72-45.67,286.88-118.83c73.16-73.16,118.83-174.91,118.83-286.88Z"/>
            <path class="cls-3" d="M923.29,603.83c0-123-50.19-234.81-130.55-315.17-80.35-80.35-192.16-130.55-315.17-130.55s-234.81,50.19-315.17,130.55C82.07,369.01,31.87,480.82,31.87,603.83s50.19,234.81,130.55,315.17,192.16,130.55,315.17,130.55,234.81-50.19,315.17-130.55,130.55-192.16,130.55-315.17Z"/>
            <path class="cls-3" d="M963.29,603.83c0-134.04-54.72-255.9-142.26-343.45-87.55-87.55-209.41-142.26-343.45-142.26s-255.9,54.72-343.45,142.26C46.59,347.92-8.13,469.79-8.13,603.83s54.72,255.9,142.26,343.45c87.55,87.55,209.41,142.26,343.45,142.26s255.9-54.72,343.45-142.26c87.55-87.55,142.26-209.41,142.26-343.45Z"/>
            <path class="cls-3" d="M1003.29,603.83c0-145.07-59.24-276.99-153.98-371.73-94.74-94.74-226.66-153.98-371.73-153.98S200.59,137.35,105.85,232.09C11.11,326.83-48.13,458.75-48.13,603.83S11.11,880.82,105.85,975.56c94.74,94.74,226.66,153.98,371.73,153.98s276.99-59.24,371.73-153.98c94.74-94.74,153.98-226.66,153.98-371.73Z"/>
            <path class="cls-3" d="M1043.29,603.83c0-156.11-63.76-298.08-165.69-400.02-101.94-101.94-243.91-165.69-400.02-165.69S179.5,101.87,77.57,203.81c-101.94,101.94-165.69,243.91-165.69,400.02s63.76,298.08,165.69,400.02c101.94,101.94,243.91,165.69,400.02,165.69s298.08-63.76,400.02-165.69c101.94-101.94,165.69-243.91,165.69-400.02Z"/>
            <path class="cls-3" d="M1083.29,603.83c0-167.14-68.28-319.17-177.41-428.3C796.76,66.39,644.72-1.89,477.58-1.89S158.41,66.39,49.28,175.52c-109.13,109.13-177.41,261.16-177.41,428.3s68.28,319.17,177.41,428.3c109.13,109.13,261.16,177.41,428.3,177.41s319.17-68.28,428.3-177.41c109.13-109.13,177.41-261.16,177.41-428.3Z"/>
            <path class="cls-3" d="M1123.29,603.83c0-178.18-72.8-340.26-189.12-456.59C817.85,30.91,655.76-41.89,477.58-41.89S137.32,30.91,21,147.24c-116.33,116.33-189.12,278.41-189.12,456.59s72.8,340.26,189.12,456.59c116.33,116.33,278.41,189.12,456.59,189.12s340.26-72.8,456.59-189.12c116.33-116.33,189.12-278.41,189.12-456.59Z"/>
            <path class="cls-3" d="M1163.29,603.83c0-189.21-77.32-361.35-200.84-484.87C838.93-4.57,666.79-81.89,477.58-81.89S116.23-4.57-7.29,118.96c-123.52,123.52-200.84,295.66-200.84,484.87S-130.81,965.18-7.29,1088.7c123.52,123.52,295.66,200.84,484.87,200.84s361.35-77.32,484.87-200.84c123.52-123.52,200.84-295.66,200.84-484.87Z"/>
            <path class="cls-3" d="M1203.29,603.83c0-200.24-81.84-382.44-212.56-513.16C860.02-40.04,677.83-121.89,477.58-121.89S95.14-40.04-35.57,90.67c-130.71,130.72-212.56,312.91-212.56,513.16s81.84,382.44,212.56,513.16c130.71,130.71,312.91,212.56,513.16,212.56s382.44-81.84,513.16-212.56c130.71-130.71,212.56-312.91,212.56-513.16Z"/>
            <path class="cls-3" d="M1243.29,603.83c0-211.28-86.36-403.53-224.27-541.44-137.91-137.91-330.16-224.27-541.44-224.27S74.05-75.52-63.86,62.39c-137.91,137.91-224.27,330.16-224.27,541.44s86.36,403.53,224.27,541.44c137.91,137.91,330.16,224.27,541.44,224.27s403.53-86.36,541.44-224.27c137.91-137.91,224.27-330.16,224.27-541.44Z"/>
            <path class="cls-3" d="M1283.29,603.83c0-222.31-90.88-424.62-235.99-569.72-145.1-145.1-347.41-235.99-569.72-235.99S52.96-111-92.14,34.1c-145.1,145.1-235.99,347.41-235.99,569.72s90.88,424.62,235.99,569.72c145.1,145.1,347.41,235.99,569.72,235.99s424.62-90.88,569.72-235.99c145.1-145.1,235.99-347.41,235.99-569.72Z"/>
            <path class="cls-3" d="M1323.29,603.83c0-233.35-95.4-445.71-247.7-598.01-152.3-152.3-364.66-247.7-598.01-247.7S31.87-146.48-120.42,5.82c-152.3,152.3-247.7,364.66-247.7,598.01s95.4,445.71,247.7,598.01c152.3,152.3,364.66,247.7,598.01,247.7s445.71-95.4,598.01-247.7c152.3-152.3,247.7-364.66,247.7-598.01Z"/>
            <path class="cls-3" d="M1363.29,603.83c0-244.38-99.92-466.8-259.42-626.29-159.49-159.49-381.91-259.42-626.29-259.42S10.78-181.96-148.71-22.47c-159.49,159.49-259.42,381.91-259.42,626.29s99.93,466.8,259.42,626.29c159.49,159.49,381.91,259.42,626.29,259.42s466.8-99.92,626.29-259.42c159.49-159.49,259.42-381.91,259.42-626.29Z"/>
          </g>
        </g>
      </g>
      <line class="cls-2" x1="477.58" y1="50.38" x2="477.58" y2="550.27"/>
      <g>
        <circle class="cls-11" cx="477.58" cy="550.27" r="22.26"/>
        <circle class="cls-6" cx="477.58" cy="550.27" r="17.15"/>
      </g>
      <g>
        <circle class="cls-11" cx="477.58" cy="50.38" r="22.26"/>
        <circle class="cls-5" cx="477.58" cy="50.38" r="17.15"/>
      </g>
      <text class="cls-8" transform="translate(518.35 555.22)"><tspan x="0" y="0">#</tspan><tspan class="cls-16" x="10.56" y="0">ff</tspan><tspan class="cls-19" x="20.69" y="0">9</tspan><tspan class="cls-10" x="30.8" y="0">d</tspan><tspan class="cls-15" x="40.7" y="0">0</tspan><tspan x="50.9" y="0">0</tspan></text>
      <text class="cls-8" transform="translate(518.35 56.31)"><tspan x="0" y="0">#</tspan><tspan class="cls-14" x="10.56" y="0">e</tspan><tspan class="cls-13" x="19.31" y="0">f</tspan><tspan class="cls-10" x="24.37" y="0">e</tspan><tspan class="cls-18" x="33.17" y="0">9</tspan><tspan class="cls-20" x="43.3" y="0">e</tspan><tspan x="52.21" y="0">0</tspan></text>
      <g class="cls-9">
        <g class="cls-12">
          <circle class="cls-3" cx="477.58" cy="-73.82" r="165.71" transform="translate(192.08 316.08) rotate(-45)"/>
          <g id="Offset_Group-2" data-name="Offset Group">
            <path class="cls-3" d="M683.29-73.82c0-56.79-23.07-108.28-60.25-145.46-37.18-37.18-88.67-60.25-145.46-60.25s-108.28,23.07-145.46,60.25c-37.18,37.18-60.25,88.67-60.25,145.46s23.07,108.28,60.25,145.46,88.67,60.25,145.46,60.25,108.28-23.07,145.46-60.25,60.25-88.67,60.25-145.46Z"/>
            <path class="cls-3" d="M723.29-73.82c0-67.83-27.59-129.37-71.97-173.74-44.38-44.38-105.91-71.97-173.74-71.97s-129.37,27.59-173.74,71.97c-44.38,44.38-71.97,105.92-71.97,173.74s27.59,129.37,71.97,173.74c44.38,44.38,105.91,71.97,173.74,71.97s129.37-27.59,173.74-71.97c44.38-44.38,71.97-105.91,71.97-173.74Z"/>
            <path class="cls-3" d="M763.29-73.82c0-78.86-32.11-150.46-83.68-202.03-51.57-51.57-123.16-83.68-202.03-83.68s-150.46,32.11-202.03,83.68c-51.57,51.57-83.68,123.16-83.68,202.03s32.11,150.46,83.68,202.03c51.57,51.57,123.16,83.68,202.03,83.68s150.46-32.11,202.03-83.68c51.57-51.57,83.68-123.16,83.68-202.03Z"/>
            <path class="cls-3" d="M803.29-73.82c0-89.9-36.63-171.55-95.4-230.31-58.77-58.77-140.41-95.4-230.31-95.4s-171.55,36.63-230.31,95.4c-58.77,58.77-95.4,140.41-95.4,230.31s36.63,171.55,95.4,230.31c58.77,58.77,140.41,95.4,230.31,95.4s171.55-36.63,230.31-95.4c58.77-58.77,95.4-140.41,95.4-230.31Z"/>
            <path class="cls-3" d="M843.29-73.82c0-100.93-41.15-192.64-107.11-258.6-65.96-65.96-157.66-107.11-258.6-107.11s-192.64,41.15-258.6,107.11c-65.96,65.96-107.11,157.66-107.11,258.6s41.15,192.64,107.11,258.6c65.96,65.96,157.66,107.11,258.6,107.11s192.64-41.15,258.6-107.11c65.96-65.96,107.11-157.66,107.11-258.6Z"/>
            <path class="cls-3" d="M883.29-73.82c0-111.97-45.67-213.72-118.83-286.88-73.16-73.16-174.91-118.83-286.88-118.83s-213.72,45.67-286.88,118.83c-73.16,73.16-118.83,174.91-118.83,286.88s45.67,213.72,118.83,286.88c73.16,73.16,174.91,118.83,286.88,118.83s213.72-45.67,286.88-118.83c73.16-73.16,118.83-174.91,118.83-286.88Z"/>
            <path class="cls-3" d="M923.29-73.82c0-123-50.19-234.81-130.55-315.17-80.35-80.35-192.16-130.55-315.17-130.55s-234.81,50.19-315.17,130.55C82.07-308.63,31.87-196.82,31.87-73.82s50.19,234.81,130.55,315.17,192.16,130.55,315.17,130.55,234.81-50.19,315.17-130.55,130.55-192.16,130.55-315.17Z"/>
            <path class="cls-3" d="M963.29-73.82c0-134.04-54.72-255.9-142.26-343.45-87.55-87.55-209.41-142.26-343.45-142.26s-255.9,54.72-343.45,142.26C46.59-329.72-8.13-207.86-8.13-73.82s54.72,255.9,142.26,343.45c87.55,87.55,209.41,142.26,343.45,142.26s255.9-54.72,343.45-142.26c87.55-87.55,142.26-209.41,142.26-343.45Z"/>
            <path class="cls-3" d="M1003.29-73.82c0-145.07-59.24-276.99-153.98-371.73-94.74-94.74-226.66-153.98-371.73-153.98s-276.99,59.24-371.73,153.98C11.11-350.81-48.13-218.89-48.13-73.82S11.11,203.17,105.85,297.91c94.74,94.74,226.66,153.98,371.73,153.98s276.99-59.24,371.73-153.98c94.74-94.74,153.98-226.66,153.98-371.73Z"/>
            <path class="cls-3" d="M1043.29-73.82c0-156.11-63.76-298.08-165.69-400.02-101.94-101.94-243.91-165.69-400.02-165.69s-298.08,63.76-400.02,165.69C-24.37-371.9-88.13-229.93-88.13-73.82S-24.37,224.26,77.57,326.2c101.94,101.94,243.91,165.69,400.02,165.69s298.08-63.76,400.02-165.69c101.94-101.94,165.69-243.91,165.69-400.02Z"/>
            <path class="cls-3" d="M1083.29-73.82c0-167.14-68.28-319.17-177.41-428.3-109.13-109.13-261.16-177.41-428.3-177.41s-319.17,68.28-428.3,177.41C-59.85-392.99-128.13-240.96-128.13-73.82S-59.85,245.35,49.28,354.48c109.13,109.13,261.16,177.41,428.3,177.41s319.17-68.28,428.3-177.41c109.13-109.13,177.41-261.16,177.41-428.3Z"/>
            <path class="cls-3" d="M1123.29-73.82c0-178.18-72.8-340.26-189.12-456.59-116.33-116.33-278.41-189.12-456.59-189.12s-340.26,72.8-456.59,189.12C-95.33-414.08-168.13-251.99-168.13-73.82S-95.33,266.44,21,382.77c116.33,116.33,278.41,189.12,456.59,189.12s340.26-72.8,456.59-189.12c116.33-116.33,189.12-278.41,189.12-456.59Z"/>
            <path class="cls-3" d="M1163.29-73.82c0-189.21-77.32-361.35-200.84-484.87-123.52-123.52-295.66-200.84-484.87-200.84S116.23-682.21-7.29-558.69c-123.52,123.52-200.84,295.66-200.84,484.87S-130.81,287.53-7.29,411.05c123.52,123.52,295.66,200.84,484.87,200.84s361.35-77.32,484.87-200.84c123.52-123.52,200.84-295.66,200.84-484.87Z"/>
            <path class="cls-3" d="M1203.29-73.82c0-200.24-81.84-382.44-212.56-513.16-130.71-130.71-312.91-212.56-513.16-212.56S95.14-717.69-35.57-586.97C-166.29-456.26-248.13-274.06-248.13-73.82S-166.29,308.62-35.57,439.34c130.71,130.71,312.91,212.56,513.16,212.56s382.44-81.84,513.16-212.56c130.71-130.71,212.56-312.91,212.56-513.16Z"/>
            <path class="cls-3" d="M1243.29-73.82c0-211.28-86.36-403.53-224.27-541.44-137.91-137.91-330.16-224.27-541.44-224.27S74.05-753.17-63.86-615.26c-137.91,137.91-224.27,330.16-224.27,541.44S-201.77,329.71-63.86,467.62c137.91,137.91,330.16,224.27,541.44,224.27s403.53-86.36,541.44-224.27c137.91-137.91,224.27-330.16,224.27-541.44Z"/>
            <path class="cls-3" d="M1283.29-73.82c0-222.31-90.88-424.62-235.99-569.72-145.1-145.1-347.41-235.99-569.72-235.99S52.96-788.65-92.14-643.54c-145.1,145.1-235.99,347.41-235.99,569.72S-237.24,350.8-92.14,495.9c145.1,145.1,347.41,235.99,569.72,235.99s424.62-90.88,569.72-235.99c145.1-145.1,235.99-347.41,235.99-569.72Z"/>
            <path class="cls-3" d="M1323.29-73.82c0-233.35-95.4-445.71-247.7-598.01-152.3-152.3-364.66-247.7-598.01-247.7S31.87-824.13-120.42-671.83c-152.3,152.3-247.7,364.66-247.7,598.01s95.4,445.71,247.7,598.01c152.3,152.3,364.66,247.7,598.01,247.7s445.71-95.4,598.01-247.7c152.3-152.3,247.7-364.66,247.7-598.01Z"/>
            <path class="cls-3" d="M1363.29-73.82c0-244.38-99.92-466.8-259.42-626.29-159.49-159.49-381.91-259.42-626.29-259.42S10.78-859.61-148.71-700.11c-159.49,159.49-259.42,381.91-259.42,626.29s99.93,466.8,259.42,626.29C10.79,711.97,233.2,811.89,477.58,811.89s466.8-99.92,626.29-259.42c159.49-159.49,259.42-381.91,259.42-626.29Z"/>
          </g>
        </g>
      </g>
    </g>
  </g>
</svg>